<mxfile host="Electron" modified="2024-08-14T10:01:10.221Z" agent="Mozilla/5.0 (Macintosh; Intel Mac OS X 10_15_7) AppleWebKit/537.36 (KHTML, like Gecko) draw.io/24.4.0 Chrome/120.0.6099.109 Electron/28.1.0 Safari/537.36" etag="reeQeAu5ngYdyFSDGgDF" version="24.4.0" type="device">
  <diagram name="Page-1" id="bZBsJEEv_NVjQFhtzkVJ">
    <mxGraphModel dx="1833" dy="455" grid="1" gridSize="10" guides="1" tooltips="1" connect="1" arrows="1" fold="1" page="1" pageScale="1" pageWidth="850" pageHeight="1100" math="1" shadow="0">
      <root>
        <mxCell id="0" />
        <mxCell id="1" parent="0" />
        <mxCell id="4g6r8dvRK6a94_yx4DHO-162" value="" style="rounded=1;whiteSpace=wrap;html=1;arcSize=5;dashed=1;fillColor=#ffe6cc;strokeColor=#BD7000;strokeWidth=1;movable=1;resizable=1;rotatable=1;deletable=1;editable=1;locked=0;connectable=1;" parent="1" vertex="1">
          <mxGeometry x="-530.86" y="300" width="153.61" height="220" as="geometry" />
        </mxCell>
        <mxCell id="KUyBQeICQTxNZvnN68rY-343" value="" style="rounded=1;whiteSpace=wrap;html=1;arcSize=5;dashed=1;fillColor=#ffe6cc;strokeColor=#BD7000;strokeWidth=1;movable=1;resizable=1;rotatable=1;deletable=1;editable=1;locked=0;connectable=1;" parent="1" vertex="1">
          <mxGeometry x="-344.13" y="300" width="153.61" height="220" as="geometry" />
        </mxCell>
        <mxCell id="4g6r8dvRK6a94_yx4DHO-145" value="" style="rounded=1;whiteSpace=wrap;html=1;arcSize=6;dashed=1;fillColor=#f5f5f5;fontColor=#333333;strokeColor=#666666;strokeWidth=1;movable=1;resizable=1;rotatable=1;deletable=1;editable=1;locked=0;connectable=1;" parent="1" vertex="1">
          <mxGeometry x="-546" y="100" width="368" height="120" as="geometry" />
        </mxCell>
        <mxCell id="4g6r8dvRK6a94_yx4DHO-34" value="" style="rounded=0;whiteSpace=wrap;html=1;direction=south;strokeWidth=1.2;" parent="1" vertex="1">
          <mxGeometry x="-224.75" y="111.99999999999996" width="34" height="40" as="geometry" />
        </mxCell>
        <mxCell id="4g6r8dvRK6a94_yx4DHO-36" value="" style="rounded=0;whiteSpace=wrap;html=1;direction=south;movable=1;resizable=1;rotatable=1;deletable=1;editable=1;locked=0;connectable=1;strokeWidth=1.2;" parent="1" vertex="1">
          <mxGeometry x="-498.89" y="112" width="36" height="40" as="geometry" />
        </mxCell>
        <mxCell id="4g6r8dvRK6a94_yx4DHO-38" value="" style="rounded=0;whiteSpace=wrap;html=1;direction=south;movable=1;resizable=1;rotatable=1;deletable=1;editable=1;locked=0;connectable=1;strokeWidth=1.2;" parent="1" vertex="1">
          <mxGeometry x="-462.89" y="112" width="36" height="40" as="geometry" />
        </mxCell>
        <mxCell id="4g6r8dvRK6a94_yx4DHO-50" value="" style="rounded=0;whiteSpace=wrap;html=1;direction=south;movable=1;resizable=1;rotatable=1;deletable=1;editable=1;locked=0;connectable=1;strokeWidth=1.2;" parent="1" vertex="1">
          <mxGeometry x="-398.74" y="112" width="36" height="40" as="geometry" />
        </mxCell>
        <mxCell id="4g6r8dvRK6a94_yx4DHO-108" value="" style="endArrow=blockThin;html=1;rounded=0;exitX=1;exitY=0.5;exitDx=0;exitDy=0;endSize=3;entryX=1;entryY=0.5;entryDx=0;entryDy=0;endFill=1;strokeWidth=1.2;" parent="1" source="KUyBQeICQTxNZvnN68rY-333" target="4g6r8dvRK6a94_yx4DHO-110" edge="1">
          <mxGeometry width="50" height="50" relative="1" as="geometry">
            <mxPoint x="-419.985" y="372.02" as="sourcePoint" />
            <mxPoint x="-504.86" y="390.02" as="targetPoint" />
          </mxGeometry>
        </mxCell>
        <mxCell id="4g6r8dvRK6a94_yx4DHO-110" value="" style="shape=orEllipse;perimeter=ellipsePerimeter;whiteSpace=wrap;html=1;backgroundOutline=1;fontColor=#666666;fillColor=#CCE5FF;strokeWidth=1.2;" parent="1" vertex="1">
          <mxGeometry x="-511.36000000000007" y="381.02" width="10" height="10" as="geometry" />
        </mxCell>
        <mxCell id="4g6r8dvRK6a94_yx4DHO-118" value="&lt;span style=&quot;color: rgb(0, 0, 0); font-family: Helvetica; font-size: 12px; font-style: normal; font-variant-ligatures: normal; font-variant-caps: normal; letter-spacing: normal; orphans: 2; text-align: center; text-indent: 0px; text-transform: none; widows: 2; word-spacing: 0px; -webkit-text-stroke-width: 0px; white-space: normal; text-decoration-thickness: initial; text-decoration-style: initial; text-decoration-color: initial; float: none; display: inline !important;&quot;&gt;64-bit word-aligned tableau with dimensions (\(k = 2, n = 128\))&lt;/span&gt;" style="text;whiteSpace=wrap;html=1;fontSize=12;fontStyle=0;fillColor=none;labelBackgroundColor=none;" parent="1" vertex="1">
          <mxGeometry x="-530.86" y="76" width="350.86" height="24" as="geometry" />
        </mxCell>
        <mxCell id="4g6r8dvRK6a94_yx4DHO-143" value="" style="endArrow=block;html=1;rounded=0;entryX=0.5;entryY=0;entryDx=0;entryDy=0;exitX=1;exitY=1;exitDx=0;exitDy=0;startArrow=block;startFill=1;strokeWidth=1.5;endSize=4;startSize=4;endFill=1;strokeColor=#000000;" parent="1" edge="1">
          <mxGeometry width="50" height="50" relative="1" as="geometry">
            <mxPoint x="-361.48999999999995" y="205" as="sourcePoint" />
            <mxPoint x="-361.48999999999995" y="238" as="targetPoint" />
          </mxGeometry>
        </mxCell>
        <mxCell id="4g6r8dvRK6a94_yx4DHO-155" value="" style="rounded=1;whiteSpace=wrap;html=1;arcSize=6;dashed=1;fillColor=#f5f5f5;fontColor=#333333;strokeColor=#666666;strokeWidth=1;movable=1;resizable=1;rotatable=1;deletable=1;editable=1;locked=0;connectable=1;" parent="1" vertex="1">
          <mxGeometry x="-748" y="117" width="187.42" height="69" as="geometry" />
        </mxCell>
        <mxCell id="4g6r8dvRK6a94_yx4DHO-156" value="" style="endArrow=block;html=1;rounded=0;entryX=0;entryY=0.5;entryDx=0;entryDy=0;strokeWidth=1.5;endSize=4;startSize=4;endFill=1;strokeColor=#000000;" parent="1" edge="1">
          <mxGeometry width="50" height="50" relative="1" as="geometry">
            <mxPoint x="-656.7" y="255" as="sourcePoint" />
            <mxPoint x="-446.2" y="254.5" as="targetPoint" />
          </mxGeometry>
        </mxCell>
        <mxCell id="4g6r8dvRK6a94_yx4DHO-163" value="" style="endArrow=block;html=1;rounded=0;strokeWidth=1.5;endSize=4;strokeColor=#000000;startSize=4;endFill=1;" parent="1" edge="1">
          <mxGeometry width="50" height="50" relative="1" as="geometry">
            <mxPoint x="-360.96999999999997" y="269" as="sourcePoint" />
            <mxPoint x="-360.96999999999997" y="287" as="targetPoint" />
          </mxGeometry>
        </mxCell>
        <mxCell id="4g6r8dvRK6a94_yx4DHO-165" value="" style="endArrow=blockThin;html=1;rounded=0;exitX=1;exitY=0.5;exitDx=0;exitDy=0;endSize=3;entryX=1;entryY=0.5;entryDx=0;entryDy=0;endFill=1;strokeWidth=1.2;" parent="1" source="KUyBQeICQTxNZvnN68rY-334" target="4g6r8dvRK6a94_yx4DHO-166" edge="1">
          <mxGeometry width="50" height="50" relative="1" as="geometry">
            <mxPoint x="-384.74" y="372.02" as="sourcePoint" />
            <mxPoint x="-469.49" y="390.02" as="targetPoint" />
          </mxGeometry>
        </mxCell>
        <mxCell id="4g6r8dvRK6a94_yx4DHO-166" value="" style="shape=orEllipse;perimeter=ellipsePerimeter;whiteSpace=wrap;html=1;backgroundOutline=1;fillColor=#CCE5FF;strokeWidth=1.2;" parent="1" vertex="1">
          <mxGeometry x="-475.99" y="381.02" width="10" height="10" as="geometry" />
        </mxCell>
        <mxCell id="4g6r8dvRK6a94_yx4DHO-179" value="" style="endArrow=blockThin;html=1;rounded=0;exitX=0.5;exitY=1;exitDx=0;exitDy=0;endSize=3;endFill=1;strokeWidth=1.2;" parent="1" edge="1">
          <mxGeometry width="50" height="50" relative="1" as="geometry">
            <mxPoint x="-506.4" y="391.02" as="sourcePoint" />
            <mxPoint x="-506.4" y="400.02" as="targetPoint" />
          </mxGeometry>
        </mxCell>
        <mxCell id="4g6r8dvRK6a94_yx4DHO-180" value="" style="endArrow=blockThin;html=1;rounded=0;exitX=0.5;exitY=1;exitDx=0;exitDy=0;endSize=3;endFill=1;strokeWidth=1.2;" parent="1" edge="1">
          <mxGeometry width="50" height="50" relative="1" as="geometry">
            <mxPoint x="-470.99" y="391.02" as="sourcePoint" />
            <mxPoint x="-470.99" y="400.02" as="targetPoint" />
          </mxGeometry>
        </mxCell>
        <mxCell id="4g6r8dvRK6a94_yx4DHO-184" value="" style="endArrow=blockThin;html=1;rounded=0;exitX=0.5;exitY=1;exitDx=0;exitDy=0;endSize=3;endFill=1;strokeWidth=1.2;" parent="1" edge="1">
          <mxGeometry width="50" height="50" relative="1" as="geometry">
            <mxPoint x="-506.4" y="372.02" as="sourcePoint" />
            <mxPoint x="-506.4" y="381.02" as="targetPoint" />
          </mxGeometry>
        </mxCell>
        <mxCell id="4g6r8dvRK6a94_yx4DHO-185" value="" style="endArrow=blockThin;html=1;rounded=0;exitX=0.5;exitY=1;exitDx=0;exitDy=0;endSize=3;endFill=1;strokeWidth=1.2;" parent="1" edge="1">
          <mxGeometry width="50" height="50" relative="1" as="geometry">
            <mxPoint x="-471.03" y="372.52" as="sourcePoint" />
            <mxPoint x="-471.03" y="381.52" as="targetPoint" />
          </mxGeometry>
        </mxCell>
        <mxCell id="4g6r8dvRK6a94_yx4DHO-186" value="" style="endArrow=blockThin;html=1;rounded=0;exitX=0.5;exitY=1;exitDx=0;exitDy=0;endSize=3;endFill=1;strokeWidth=1.2;" parent="1" edge="1">
          <mxGeometry width="50" height="50" relative="1" as="geometry">
            <mxPoint x="-506.4" y="441.25" as="sourcePoint" />
            <mxPoint x="-506.4" y="450.25" as="targetPoint" />
          </mxGeometry>
        </mxCell>
        <mxCell id="4g6r8dvRK6a94_yx4DHO-187" value="" style="shape=orEllipse;perimeter=ellipsePerimeter;whiteSpace=wrap;html=1;backgroundOutline=1;fontColor=#666666;fillColor=#CCE5FF;strokeWidth=1.2;" parent="1" vertex="1">
          <mxGeometry x="-511.36000000000007" y="450.25" width="10" height="10" as="geometry" />
        </mxCell>
        <mxCell id="4g6r8dvRK6a94_yx4DHO-189" value="" style="endArrow=blockThin;html=1;rounded=0;exitX=1;exitY=0.5;exitDx=0;exitDy=0;endSize=3;entryX=1;entryY=0.5;entryDx=0;entryDy=0;endFill=1;strokeWidth=1.2;" parent="1" source="KUyBQeICQTxNZvnN68rY-338" target="4g6r8dvRK6a94_yx4DHO-187" edge="1">
          <mxGeometry width="50" height="50" relative="1" as="geometry">
            <mxPoint x="-462.86" y="441.25" as="sourcePoint" />
            <mxPoint x="-464.15" y="450.75" as="targetPoint" />
          </mxGeometry>
        </mxCell>
        <mxCell id="4g6r8dvRK6a94_yx4DHO-192" value="" style="endArrow=blockThin;html=1;rounded=0;exitX=0.5;exitY=1;exitDx=0;exitDy=0;endSize=3;endFill=1;strokeWidth=1.2;" parent="1" edge="1">
          <mxGeometry width="50" height="50" relative="1" as="geometry">
            <mxPoint x="-506.45000000000005" y="460.25" as="sourcePoint" />
            <mxPoint x="-506.45000000000005" y="469.25" as="targetPoint" />
          </mxGeometry>
        </mxCell>
        <mxCell id="4g6r8dvRK6a94_yx4DHO-197" value="" style="endArrow=none;html=1;rounded=0;strokeWidth=1.5;endSize=3;strokeColor=#000000;endFill=0;" parent="1" edge="1">
          <mxGeometry width="50" height="50" relative="1" as="geometry">
            <mxPoint x="-207.5" y="205" as="sourcePoint" />
            <mxPoint x="-207.5" y="254.7" as="targetPoint" />
          </mxGeometry>
        </mxCell>
        <mxCell id="4g6r8dvRK6a94_yx4DHO-201" value="" style="endArrow=block;html=1;rounded=0;entryX=1;entryY=0.5;entryDx=0;entryDy=0;strokeWidth=1.5;endSize=4;startSize=4;endFill=1;strokeColor=#000000;" parent="1" target="4g6r8dvRK6a94_yx4DHO-84" edge="1">
          <mxGeometry width="50" height="50" relative="1" as="geometry">
            <mxPoint x="-207.5" y="254" as="sourcePoint" />
            <mxPoint x="-181.2" y="260.13" as="targetPoint" />
          </mxGeometry>
        </mxCell>
        <mxCell id="4g6r8dvRK6a94_yx4DHO-205" value="&lt;span style=&quot;color: rgb(0, 0, 0); font-family: Helvetica; font-size: 12px; font-style: normal; font-variant-ligatures: normal; font-variant-caps: normal; letter-spacing: normal; orphans: 2; text-align: center; text-indent: 0px; text-transform: none; widows: 2; word-spacing: 0px; -webkit-text-stroke-width: 0px; white-space: normal; text-decoration-thickness: initial; text-decoration-style: initial; text-decoration-color: initial; float: none; display: inline !important;&quot;&gt;Window of 4 parallel gates&lt;/span&gt;" style="text;whiteSpace=wrap;html=1;fontSize=12;fontStyle=0;fillColor=none;" parent="1" vertex="1">
          <mxGeometry x="-727.92" y="93" width="151.5" height="24" as="geometry" />
        </mxCell>
        <mxCell id="4g6r8dvRK6a94_yx4DHO-207" value="" style="endArrow=none;html=1;rounded=0;strokeWidth=1.5;endSize=3;strokeColor=#000000;endFill=0;" parent="1" edge="1">
          <mxGeometry width="50" height="50" relative="1" as="geometry">
            <mxPoint x="-655.96" y="166" as="sourcePoint" />
            <mxPoint x="-656" y="255" as="targetPoint" />
          </mxGeometry>
        </mxCell>
        <mxCell id="4g6r8dvRK6a94_yx4DHO-208" value="&lt;span style=&quot;color: rgb(0, 0, 0); font-family: Helvetica; font-size: 12px; font-style: normal; font-variant-ligatures: normal; font-variant-caps: normal; letter-spacing: normal; orphans: 2; text-align: center; text-indent: 0px; text-transform: none; widows: 2; word-spacing: 0px; -webkit-text-stroke-width: 0px; white-space: normal; text-decoration-thickness: initial; text-decoration-style: initial; text-decoration-color: initial; float: none; display: inline !important;&quot;&gt;Collapse sign words per block&lt;/span&gt;" style="text;whiteSpace=wrap;html=1;fontSize=12;fontStyle=0;rotation=-90;fillColor=none;labelBackgroundColor=none;" parent="1" vertex="1">
          <mxGeometry x="-617.96" y="391.0199999999999" width="162.2" height="39" as="geometry" />
        </mxCell>
        <mxCell id="4g6r8dvRK6a94_yx4DHO-84" value="ApplyUpdateRules" style="rounded=1;whiteSpace=wrap;html=1;fillColor=none;strokeColor=#000000;strokeWidth=1.5;fontColor=#CC0000;gradientColor=none;" parent="1" vertex="1">
          <mxGeometry x="-445.95" y="239" width="170" height="30" as="geometry" />
        </mxCell>
        <mxCell id="KUyBQeICQTxNZvnN68rY-236" value="" style="shape=curlyBracket;whiteSpace=wrap;html=1;rounded=1;flipH=1;labelPosition=right;verticalLabelPosition=middle;align=left;verticalAlign=middle;rotation=90;strokeWidth=1.5;" parent="1" vertex="1">
          <mxGeometry x="-366.5" y="64.99000000000001" width="10" height="272" as="geometry" />
        </mxCell>
        <mxCell id="KUyBQeICQTxNZvnN68rY-237" value="" style="shape=curlyBracket;whiteSpace=wrap;html=1;rounded=1;flipH=1;labelPosition=right;verticalLabelPosition=middle;align=left;verticalAlign=middle;rotation=90;strokeWidth=1.5;" parent="1" vertex="1">
          <mxGeometry x="-212.51" y="185" width="10" height="32" as="geometry" />
        </mxCell>
        <mxCell id="KUyBQeICQTxNZvnN68rY-239" value="" style="shape=curlyBracket;whiteSpace=wrap;html=1;rounded=1;flipH=1;labelPosition=right;verticalLabelPosition=middle;align=left;verticalAlign=middle;rotation=-90;strokeWidth=1.5;" parent="1" vertex="1">
          <mxGeometry x="-366.89" y="122.5" width="11.88" height="335.06" as="geometry" />
        </mxCell>
        <mxCell id="KUyBQeICQTxNZvnN68rY-245" value="" style="endArrow=none;html=1;rounded=0;strokeWidth=1.5;endSize=4;strokeColor=#000000;startSize=4;endFill=0;" parent="1" edge="1">
          <mxGeometry width="50" height="50" relative="1" as="geometry">
            <mxPoint x="-507.00000000000006" y="511" as="sourcePoint" />
            <mxPoint x="-507" y="550" as="targetPoint" />
          </mxGeometry>
        </mxCell>
        <mxCell id="KUyBQeICQTxNZvnN68rY-248" value="" style="rounded=0;whiteSpace=wrap;html=1;direction=south;fillColor=#FFFFFF;strokeColor=#000000;strokeWidth=1.2;" parent="1" vertex="1">
          <mxGeometry x="-736.4200000000001" y="135.56" width="40" height="30" as="geometry" />
        </mxCell>
        <mxCell id="KUyBQeICQTxNZvnN68rY-249" value="$$P_{120}$$" style="text;html=1;align=center;verticalAlign=middle;whiteSpace=wrap;rounded=0;direction=south;fillColor=none;movable=1;resizable=1;rotatable=1;deletable=1;editable=1;locked=0;connectable=1;fontColor=#CC0000;" parent="1" vertex="1">
          <mxGeometry x="-726.0500000000001" y="141.81" width="19.25" height="17.5" as="geometry" />
        </mxCell>
        <mxCell id="KUyBQeICQTxNZvnN68rY-264" value="" style="rounded=0;whiteSpace=wrap;html=1;direction=south;movable=1;resizable=1;rotatable=1;deletable=1;editable=1;locked=0;connectable=1;strokeWidth=1.2;" parent="1" vertex="1">
          <mxGeometry x="-361.89" y="112" width="36" height="40" as="geometry" />
        </mxCell>
        <mxCell id="KUyBQeICQTxNZvnN68rY-265" value="" style="rounded=0;whiteSpace=wrap;html=1;direction=south;movable=1;resizable=1;rotatable=1;deletable=1;editable=1;locked=0;connectable=1;strokeWidth=1.2;" parent="1" vertex="1">
          <mxGeometry x="-325.89" y="112" width="36" height="40" as="geometry" />
        </mxCell>
        <mxCell id="KUyBQeICQTxNZvnN68rY-267" value="" style="rounded=0;whiteSpace=wrap;html=1;direction=south;movable=1;resizable=1;rotatable=1;deletable=1;editable=1;locked=0;connectable=1;strokeWidth=1.2;" parent="1" vertex="1">
          <mxGeometry x="-261.89" y="112" width="36" height="40" as="geometry" />
        </mxCell>
        <mxCell id="4g6r8dvRK6a94_yx4DHO-35" value="S[0]" style="text;html=1;align=center;verticalAlign=middle;whiteSpace=wrap;rounded=0;fontColor=#FF8000;direction=south;movable=1;resizable=1;rotatable=1;deletable=1;editable=1;locked=0;connectable=1;fontSize=11;fontStyle=0" parent="1" vertex="1">
          <mxGeometry x="-218.91000000000005" y="125.37" width="22.33" height="13.25" as="geometry" />
        </mxCell>
        <mxCell id="4g6r8dvRK6a94_yx4DHO-37" value="X[0]" style="text;html=1;align=center;verticalAlign=middle;whiteSpace=wrap;rounded=0;fontColor=#007FFF;direction=south;movable=1;resizable=1;rotatable=1;deletable=1;editable=1;locked=0;connectable=1;fontSize=11;fontStyle=0" parent="1" vertex="1">
          <mxGeometry x="-493.9000000000001" y="124.63000000000001" width="26.03" height="15.52" as="geometry" />
        </mxCell>
        <mxCell id="4g6r8dvRK6a94_yx4DHO-39" value="X[1]" style="text;html=1;align=center;verticalAlign=middle;whiteSpace=wrap;rounded=0;fontColor=#007FFF;direction=south;movable=1;resizable=1;rotatable=1;deletable=1;editable=1;locked=0;connectable=1;fontSize=11;fontStyle=0" parent="1" vertex="1">
          <mxGeometry x="-461.06" y="123.47" width="27.88" height="17.05" as="geometry" />
        </mxCell>
        <mxCell id="4g6r8dvRK6a94_yx4DHO-51" value="X[127]" style="text;html=1;align=center;verticalAlign=middle;whiteSpace=wrap;rounded=0;fontColor=#007FFF;direction=south;movable=1;resizable=1;rotatable=1;deletable=1;editable=1;locked=0;connectable=1;fontSize=11;fontStyle=0" parent="1" vertex="1">
          <mxGeometry x="-392.75999999999993" y="123.86" width="24.02" height="17.05" as="geometry" />
        </mxCell>
        <mxCell id="KUyBQeICQTxNZvnN68rY-313" value="" style="rounded=0;whiteSpace=wrap;html=1;direction=south;strokeWidth=1.2;" parent="1" vertex="1">
          <mxGeometry x="-224.75000000000003" y="151.99999999999994" width="34" height="40" as="geometry" />
        </mxCell>
        <mxCell id="KUyBQeICQTxNZvnN68rY-314" value="" style="rounded=0;whiteSpace=wrap;html=1;direction=south;movable=1;resizable=1;rotatable=1;deletable=1;editable=1;locked=0;connectable=1;strokeWidth=1.2;" parent="1" vertex="1">
          <mxGeometry x="-498.74" y="152" width="36" height="40" as="geometry" />
        </mxCell>
        <mxCell id="KUyBQeICQTxNZvnN68rY-315" value="" style="rounded=0;whiteSpace=wrap;html=1;direction=south;movable=1;resizable=1;rotatable=1;deletable=1;editable=1;locked=0;connectable=1;strokeWidth=1.2;" parent="1" vertex="1">
          <mxGeometry x="-462.74" y="152" width="36" height="40" as="geometry" />
        </mxCell>
        <mxCell id="KUyBQeICQTxNZvnN68rY-317" value="" style="rounded=0;whiteSpace=wrap;html=1;direction=south;movable=1;resizable=1;rotatable=1;deletable=1;editable=1;locked=0;connectable=1;strokeWidth=1.2;" parent="1" vertex="1">
          <mxGeometry x="-398.74" y="152" width="36" height="40" as="geometry" />
        </mxCell>
        <mxCell id="KUyBQeICQTxNZvnN68rY-318" value="" style="rounded=0;whiteSpace=wrap;html=1;direction=south;movable=1;resizable=1;rotatable=1;deletable=1;editable=1;locked=0;connectable=1;strokeWidth=1.2;" parent="1" vertex="1">
          <mxGeometry x="-361.74" y="152" width="36" height="40" as="geometry" />
        </mxCell>
        <mxCell id="KUyBQeICQTxNZvnN68rY-319" value="" style="rounded=0;whiteSpace=wrap;html=1;direction=south;movable=1;resizable=1;rotatable=1;deletable=1;editable=1;locked=0;connectable=1;strokeWidth=1.2;" parent="1" vertex="1">
          <mxGeometry x="-325.74" y="152" width="36" height="40" as="geometry" />
        </mxCell>
        <mxCell id="KUyBQeICQTxNZvnN68rY-321" value="" style="rounded=0;whiteSpace=wrap;html=1;direction=south;movable=1;resizable=1;rotatable=1;deletable=1;editable=1;locked=0;connectable=1;strokeWidth=1.2;" parent="1" vertex="1">
          <mxGeometry x="-261.89" y="152" width="36" height="40" as="geometry" />
        </mxCell>
        <mxCell id="KUyBQeICQTxNZvnN68rY-322" value="S[1]" style="text;html=1;align=center;verticalAlign=middle;whiteSpace=wrap;rounded=0;fontColor=#FF8000;direction=south;movable=1;resizable=1;rotatable=1;deletable=1;editable=1;locked=0;connectable=1;fontSize=11;fontStyle=0" parent="1" vertex="1">
          <mxGeometry x="-218.67000000000007" y="165.23" width="22.33" height="13.25" as="geometry" />
        </mxCell>
        <mxCell id="KUyBQeICQTxNZvnN68rY-323" value="X[128]" style="text;html=1;align=center;verticalAlign=middle;whiteSpace=wrap;rounded=0;fontColor=#007FFF;direction=south;movable=1;resizable=1;rotatable=1;deletable=1;editable=1;locked=0;connectable=1;fontSize=11;fontStyle=0" parent="1" vertex="1">
          <mxGeometry x="-494.0400000000001" y="165.72000000000003" width="26.03" height="15.52" as="geometry" />
        </mxCell>
        <mxCell id="KUyBQeICQTxNZvnN68rY-324" value="X[129]" style="text;html=1;align=center;verticalAlign=middle;whiteSpace=wrap;rounded=0;fontColor=#007FFF;direction=south;movable=1;resizable=1;rotatable=1;deletable=1;editable=1;locked=0;connectable=1;fontSize=11;fontStyle=0" parent="1" vertex="1">
          <mxGeometry x="-458.81" y="164.56" width="27.88" height="17.05" as="geometry" />
        </mxCell>
        <mxCell id="KUyBQeICQTxNZvnN68rY-328" value="X[255]" style="text;html=1;align=center;verticalAlign=middle;whiteSpace=wrap;rounded=0;fontColor=#007FFF;direction=south;movable=1;resizable=1;rotatable=1;deletable=1;editable=1;locked=0;connectable=1;fontSize=11;fontStyle=0" parent="1" vertex="1">
          <mxGeometry x="-392.5199999999999" y="163.47" width="24.02" height="17.05" as="geometry" />
        </mxCell>
        <mxCell id="KUyBQeICQTxNZvnN68rY-331" value="" style="rounded=0;whiteSpace=wrap;html=1;direction=south;movable=1;resizable=1;rotatable=1;deletable=1;editable=1;locked=0;connectable=1;strokeWidth=1.2;" parent="1" vertex="1">
          <mxGeometry x="-522.36" y="332.02" width="34" height="40" as="geometry" />
        </mxCell>
        <mxCell id="KUyBQeICQTxNZvnN68rY-332" value="" style="rounded=0;whiteSpace=wrap;html=1;direction=south;movable=1;resizable=1;rotatable=1;deletable=1;editable=1;locked=0;connectable=1;strokeWidth=1.2;" parent="1" vertex="1">
          <mxGeometry x="-488.36" y="332.02" width="34" height="40" as="geometry" />
        </mxCell>
        <mxCell id="KUyBQeICQTxNZvnN68rY-333" value="" style="rounded=0;whiteSpace=wrap;html=1;direction=south;movable=1;resizable=1;rotatable=1;deletable=1;editable=1;locked=0;connectable=1;strokeWidth=1.2;" parent="1" vertex="1">
          <mxGeometry x="-454.36" y="332.02" width="34" height="40" as="geometry" />
        </mxCell>
        <mxCell id="KUyBQeICQTxNZvnN68rY-334" value="" style="rounded=0;whiteSpace=wrap;html=1;direction=south;movable=1;resizable=1;rotatable=1;deletable=1;editable=1;locked=0;connectable=1;strokeWidth=1.2;" parent="1" vertex="1">
          <mxGeometry x="-420.36" y="332.02" width="34" height="40" as="geometry" />
        </mxCell>
        <mxCell id="4g6r8dvRK6a94_yx4DHO-99" value="$$\texttt{sh[0]}$$" style="text;html=1;align=center;verticalAlign=middle;whiteSpace=wrap;rounded=0;direction=south;fillColor=none;movable=1;resizable=1;rotatable=1;deletable=1;editable=1;locked=0;connectable=1;fontColor=#CC0000;fontSize=10;" parent="1" vertex="1">
          <mxGeometry x="-519.6899999999999" y="344.26" width="30.02" height="15.74" as="geometry" />
        </mxCell>
        <mxCell id="KUyBQeICQTxNZvnN68rY-337" value="" style="rounded=0;whiteSpace=wrap;html=1;direction=south;movable=1;resizable=1;rotatable=1;deletable=1;editable=1;locked=0;connectable=1;strokeWidth=1.2;" parent="1" vertex="1">
          <mxGeometry x="-522.85" y="401.25" width="34" height="40" as="geometry" />
        </mxCell>
        <mxCell id="KUyBQeICQTxNZvnN68rY-338" value="" style="rounded=0;whiteSpace=wrap;html=1;direction=south;movable=1;resizable=1;rotatable=1;deletable=1;editable=1;locked=0;connectable=1;strokeWidth=1.2;" parent="1" vertex="1">
          <mxGeometry x="-488.85" y="401.25" width="34" height="40" as="geometry" />
        </mxCell>
        <mxCell id="KUyBQeICQTxNZvnN68rY-341" value="" style="rounded=0;whiteSpace=wrap;html=1;direction=south;movable=1;resizable=1;rotatable=1;deletable=1;editable=1;locked=0;connectable=1;strokeWidth=1.2;" parent="1" vertex="1">
          <mxGeometry x="-522.85" y="470.25" width="34" height="40" as="geometry" />
        </mxCell>
        <mxCell id="KUyBQeICQTxNZvnN68rY-344" value="" style="endArrow=blockThin;html=1;rounded=0;exitX=1;exitY=0.5;exitDx=0;exitDy=0;endSize=3;entryX=1;entryY=0.5;entryDx=0;entryDy=0;endFill=1;strokeWidth=1.2;" parent="1" source="KUyBQeICQTxNZvnN68rY-361" target="KUyBQeICQTxNZvnN68rY-345" edge="1">
          <mxGeometry width="50" height="50" relative="1" as="geometry">
            <mxPoint x="-233.255" y="372.02" as="sourcePoint" />
            <mxPoint x="-318.13" y="390.02" as="targetPoint" />
          </mxGeometry>
        </mxCell>
        <mxCell id="KUyBQeICQTxNZvnN68rY-345" value="" style="shape=orEllipse;perimeter=ellipsePerimeter;whiteSpace=wrap;html=1;backgroundOutline=1;fontColor=#666666;fillColor=#CCE5FF;strokeWidth=1.2;" parent="1" vertex="1">
          <mxGeometry x="-324.63" y="381.02" width="10" height="10" as="geometry" />
        </mxCell>
        <mxCell id="KUyBQeICQTxNZvnN68rY-346" value="" style="endArrow=blockThin;html=1;rounded=0;exitX=1;exitY=0.5;exitDx=0;exitDy=0;endSize=3;entryX=1;entryY=0.5;entryDx=0;entryDy=0;endFill=1;strokeWidth=1.2;" parent="1" source="KUyBQeICQTxNZvnN68rY-362" target="KUyBQeICQTxNZvnN68rY-347" edge="1">
          <mxGeometry width="50" height="50" relative="1" as="geometry">
            <mxPoint x="-198.01" y="372.02" as="sourcePoint" />
            <mxPoint x="-282.76" y="390.02" as="targetPoint" />
          </mxGeometry>
        </mxCell>
        <mxCell id="KUyBQeICQTxNZvnN68rY-347" value="" style="shape=orEllipse;perimeter=ellipsePerimeter;whiteSpace=wrap;html=1;backgroundOutline=1;fillColor=#CCE5FF;strokeWidth=1.2;" parent="1" vertex="1">
          <mxGeometry x="-289.26" y="381.02" width="10" height="10" as="geometry" />
        </mxCell>
        <mxCell id="KUyBQeICQTxNZvnN68rY-348" value="" style="endArrow=blockThin;html=1;rounded=0;exitX=0.5;exitY=1;exitDx=0;exitDy=0;endSize=3;endFill=1;strokeWidth=1.2;" parent="1" edge="1">
          <mxGeometry width="50" height="50" relative="1" as="geometry">
            <mxPoint x="-319.66999999999996" y="391.02" as="sourcePoint" />
            <mxPoint x="-319.66999999999996" y="400.02" as="targetPoint" />
          </mxGeometry>
        </mxCell>
        <mxCell id="KUyBQeICQTxNZvnN68rY-349" value="" style="endArrow=blockThin;html=1;rounded=0;exitX=0.5;exitY=1;exitDx=0;exitDy=0;endSize=3;endFill=1;strokeWidth=1.2;" parent="1" edge="1">
          <mxGeometry width="50" height="50" relative="1" as="geometry">
            <mxPoint x="-284.26" y="391.02" as="sourcePoint" />
            <mxPoint x="-284.26" y="400.02" as="targetPoint" />
          </mxGeometry>
        </mxCell>
        <mxCell id="KUyBQeICQTxNZvnN68rY-350" value="" style="endArrow=blockThin;html=1;rounded=0;exitX=0.5;exitY=1;exitDx=0;exitDy=0;endSize=3;endFill=1;strokeWidth=1.2;" parent="1" edge="1">
          <mxGeometry width="50" height="50" relative="1" as="geometry">
            <mxPoint x="-319.66999999999996" y="372.02" as="sourcePoint" />
            <mxPoint x="-319.66999999999996" y="381.02" as="targetPoint" />
          </mxGeometry>
        </mxCell>
        <mxCell id="KUyBQeICQTxNZvnN68rY-351" value="" style="endArrow=blockThin;html=1;rounded=0;exitX=0.5;exitY=1;exitDx=0;exitDy=0;endSize=3;endFill=1;strokeWidth=1.2;" parent="1" edge="1">
          <mxGeometry width="50" height="50" relative="1" as="geometry">
            <mxPoint x="-284.29999999999995" y="372.52" as="sourcePoint" />
            <mxPoint x="-284.29999999999995" y="381.52" as="targetPoint" />
          </mxGeometry>
        </mxCell>
        <mxCell id="KUyBQeICQTxNZvnN68rY-352" value="" style="endArrow=blockThin;html=1;rounded=0;exitX=0.5;exitY=1;exitDx=0;exitDy=0;endSize=3;endFill=1;strokeWidth=1.2;" parent="1" edge="1">
          <mxGeometry width="50" height="50" relative="1" as="geometry">
            <mxPoint x="-319.66999999999996" y="441.25" as="sourcePoint" />
            <mxPoint x="-319.66999999999996" y="450.25" as="targetPoint" />
          </mxGeometry>
        </mxCell>
        <mxCell id="KUyBQeICQTxNZvnN68rY-353" value="" style="shape=orEllipse;perimeter=ellipsePerimeter;whiteSpace=wrap;html=1;backgroundOutline=1;fontColor=#666666;fillColor=#CCE5FF;strokeWidth=1.2;" parent="1" vertex="1">
          <mxGeometry x="-324.63" y="450.25" width="10" height="10" as="geometry" />
        </mxCell>
        <mxCell id="KUyBQeICQTxNZvnN68rY-354" value="" style="endArrow=blockThin;html=1;rounded=0;exitX=1;exitY=0.5;exitDx=0;exitDy=0;endSize=3;entryX=1;entryY=0.5;entryDx=0;entryDy=0;endFill=1;strokeWidth=1.2;" parent="1" source="KUyBQeICQTxNZvnN68rY-368" target="KUyBQeICQTxNZvnN68rY-353" edge="1">
          <mxGeometry width="50" height="50" relative="1" as="geometry">
            <mxPoint x="-276.13" y="441.25" as="sourcePoint" />
            <mxPoint x="-277.41999999999996" y="450.75" as="targetPoint" />
          </mxGeometry>
        </mxCell>
        <mxCell id="KUyBQeICQTxNZvnN68rY-355" value="" style="endArrow=blockThin;html=1;rounded=0;exitX=0.5;exitY=1;exitDx=0;exitDy=0;endSize=3;endFill=1;strokeWidth=1.2;" parent="1" edge="1">
          <mxGeometry width="50" height="50" relative="1" as="geometry">
            <mxPoint x="-319.72" y="460.25" as="sourcePoint" />
            <mxPoint x="-319.72" y="469.25" as="targetPoint" />
          </mxGeometry>
        </mxCell>
        <mxCell id="KUyBQeICQTxNZvnN68rY-358" value="" style="endArrow=none;html=1;rounded=0;strokeWidth=1.5;endSize=4;strokeColor=#000000;startSize=4;endFill=0;exitX=1;exitY=0.5;exitDx=0;exitDy=0;" parent="1" source="KUyBQeICQTxNZvnN68rY-371" edge="1">
          <mxGeometry width="50" height="50" relative="1" as="geometry">
            <mxPoint x="-319" y="511" as="sourcePoint" />
            <mxPoint x="-319" y="540" as="targetPoint" />
          </mxGeometry>
        </mxCell>
        <mxCell id="KUyBQeICQTxNZvnN68rY-359" value="" style="rounded=0;whiteSpace=wrap;html=1;direction=south;movable=1;resizable=1;rotatable=1;deletable=1;editable=1;locked=0;connectable=1;strokeWidth=1.2;" parent="1" vertex="1">
          <mxGeometry x="-335.63" y="332.02" width="34" height="40" as="geometry" />
        </mxCell>
        <mxCell id="KUyBQeICQTxNZvnN68rY-360" value="" style="rounded=0;whiteSpace=wrap;html=1;direction=south;movable=1;resizable=1;rotatable=1;deletable=1;editable=1;locked=0;connectable=1;strokeWidth=1.2;" parent="1" vertex="1">
          <mxGeometry x="-301.63" y="332.02" width="34" height="40" as="geometry" />
        </mxCell>
        <mxCell id="KUyBQeICQTxNZvnN68rY-361" value="" style="rounded=0;whiteSpace=wrap;html=1;direction=south;movable=1;resizable=1;rotatable=1;deletable=1;editable=1;locked=0;connectable=1;strokeWidth=1.2;" parent="1" vertex="1">
          <mxGeometry x="-267.63" y="332.02" width="34" height="40" as="geometry" />
        </mxCell>
        <mxCell id="KUyBQeICQTxNZvnN68rY-362" value="" style="rounded=0;whiteSpace=wrap;html=1;direction=south;movable=1;resizable=1;rotatable=1;deletable=1;editable=1;locked=0;connectable=1;strokeWidth=1.2;" parent="1" vertex="1">
          <mxGeometry x="-233.63" y="332.02" width="34" height="40" as="geometry" />
        </mxCell>
        <mxCell id="KUyBQeICQTxNZvnN68rY-367" value="" style="rounded=0;whiteSpace=wrap;html=1;direction=south;movable=1;resizable=1;rotatable=1;deletable=1;editable=1;locked=0;connectable=1;strokeWidth=1.2;" parent="1" vertex="1">
          <mxGeometry x="-336.12" y="401.25" width="34" height="40" as="geometry" />
        </mxCell>
        <mxCell id="KUyBQeICQTxNZvnN68rY-368" value="" style="rounded=0;whiteSpace=wrap;html=1;direction=south;movable=1;resizable=1;rotatable=1;deletable=1;editable=1;locked=0;connectable=1;strokeWidth=1.2;" parent="1" vertex="1">
          <mxGeometry x="-302.12" y="401.25" width="34" height="40" as="geometry" />
        </mxCell>
        <mxCell id="KUyBQeICQTxNZvnN68rY-371" value="" style="rounded=0;whiteSpace=wrap;html=1;direction=south;movable=1;resizable=1;rotatable=1;deletable=1;editable=1;locked=0;connectable=1;strokeWidth=1.2;" parent="1" vertex="1">
          <mxGeometry x="-336.12" y="470.63" width="34" height="40" as="geometry" />
        </mxCell>
        <mxCell id="KUyBQeICQTxNZvnN68rY-401" value="Global memory" style="text;html=1;align=center;verticalAlign=middle;whiteSpace=wrap;rounded=0;fontSize=9;fontColor=#4D4D4D;fontStyle=0" parent="1" vertex="1">
          <mxGeometry x="-554.29" y="201" width="88.01" height="20" as="geometry" />
        </mxCell>
        <mxCell id="KUyBQeICQTxNZvnN68rY-402" value="Global memory" style="text;html=1;align=center;verticalAlign=middle;whiteSpace=wrap;rounded=0;fontSize=9;fontColor=#4D4D4D;fontStyle=0" parent="1" vertex="1">
          <mxGeometry x="-755.0600000000001" y="168" width="88.01" height="20" as="geometry" />
        </mxCell>
        <mxCell id="KUyBQeICQTxNZvnN68rY-403" value="Shared memory" style="text;html=1;align=center;verticalAlign=middle;whiteSpace=wrap;rounded=0;fontSize=9;fontColor=#994C00;fontStyle=0" parent="1" vertex="1">
          <mxGeometry x="-450" y="506" width="67.3" height="10" as="geometry" />
        </mxCell>
        <mxCell id="KUyBQeICQTxNZvnN68rY-404" value="Shared memory" style="text;html=1;align=center;verticalAlign=middle;whiteSpace=wrap;rounded=0;fontSize=9;fontColor=#994C00;fontStyle=0" parent="1" vertex="1">
          <mxGeometry x="-263.02" y="506" width="67.3" height="10" as="geometry" />
        </mxCell>
        <mxCell id="KUyBQeICQTxNZvnN68rY-408" value="\(\dots\)" style="text;html=1;align=center;verticalAlign=middle;whiteSpace=wrap;rounded=0;fontSize=12;rotation=-180;" parent="1" vertex="1">
          <mxGeometry x="-423.00000000000006" y="144.61" width="19.72" height="18.5" as="geometry" />
        </mxCell>
        <mxCell id="KUyBQeICQTxNZvnN68rY-411" value="" style="endArrow=none;html=1;rounded=0;strokeWidth=1.5;" parent="1" edge="1">
          <mxGeometry width="50" height="50" relative="1" as="geometry">
            <mxPoint x="-319.7" y="540" as="sourcePoint" />
            <mxPoint x="-169.7" y="540" as="targetPoint" />
          </mxGeometry>
        </mxCell>
        <mxCell id="KUyBQeICQTxNZvnN68rY-412" value="" style="endArrow=none;html=1;rounded=0;strokeWidth=1.5;" parent="1" edge="1">
          <mxGeometry width="50" height="50" relative="1" as="geometry">
            <mxPoint x="-170" y="540.7" as="sourcePoint" />
            <mxPoint x="-170" y="168.35" as="targetPoint" />
          </mxGeometry>
        </mxCell>
        <mxCell id="KUyBQeICQTxNZvnN68rY-413" value="" style="endArrow=none;html=1;rounded=0;strokeWidth=1.5;" parent="1" edge="1">
          <mxGeometry width="50" height="50" relative="1" as="geometry">
            <mxPoint x="-507.72" y="550" as="sourcePoint" />
            <mxPoint x="-160" y="550" as="targetPoint" />
          </mxGeometry>
        </mxCell>
        <mxCell id="KUyBQeICQTxNZvnN68rY-414" value="" style="endArrow=none;html=1;rounded=0;strokeWidth=1.5;" parent="1" edge="1">
          <mxGeometry width="50" height="50" relative="1" as="geometry">
            <mxPoint x="-160" y="550.7" as="sourcePoint" />
            <mxPoint x="-160" y="131.35" as="targetPoint" />
          </mxGeometry>
        </mxCell>
        <mxCell id="KUyBQeICQTxNZvnN68rY-418" value="" style="endArrow=block;html=1;rounded=0;entryX=1;entryY=0.5;entryDx=0;entryDy=0;strokeWidth=1.5;endSize=4;startSize=4;endFill=1;strokeColor=#000000;" parent="1" edge="1">
          <mxGeometry width="50" height="50" relative="1" as="geometry">
            <mxPoint x="-170" y="169" as="sourcePoint" />
            <mxPoint x="-190.74" y="169" as="targetPoint" />
          </mxGeometry>
        </mxCell>
        <mxCell id="KUyBQeICQTxNZvnN68rY-419" value="" style="endArrow=block;html=1;rounded=0;strokeWidth=1.5;endSize=4;startSize=4;endFill=1;strokeColor=#000000;" parent="1" edge="1">
          <mxGeometry width="50" height="50" relative="1" as="geometry">
            <mxPoint x="-160.01" y="132" as="sourcePoint" />
            <mxPoint x="-190.75" y="132" as="targetPoint" />
          </mxGeometry>
        </mxCell>
        <mxCell id="KUyBQeICQTxNZvnN68rY-424" value="$$\texttt{tid}_{\texttt{y}}\texttt{=0}$$" style="text;html=1;align=center;verticalAlign=middle;whiteSpace=wrap;rounded=0;fontSize=10;container=0;fontStyle=0;fontColor=#000000;" parent="1" vertex="1">
          <mxGeometry x="-545.57" y="123.25" width="46.83" height="17.5" as="geometry" />
        </mxCell>
        <mxCell id="KUyBQeICQTxNZvnN68rY-429" value="$$\texttt{sh[1]}$$" style="text;html=1;align=center;verticalAlign=middle;whiteSpace=wrap;rounded=0;direction=south;fillColor=none;movable=1;resizable=1;rotatable=1;deletable=1;editable=1;locked=0;connectable=1;fontColor=#CC0000;fontSize=10;" parent="1" vertex="1">
          <mxGeometry x="-484.17" y="344.9" width="26.36" height="14.23" as="geometry" />
        </mxCell>
        <mxCell id="KUyBQeICQTxNZvnN68rY-430" value="$$\texttt{sh[2]}$$" style="text;html=1;align=center;verticalAlign=middle;whiteSpace=wrap;rounded=0;direction=south;fillColor=none;movable=1;resizable=1;rotatable=1;deletable=1;editable=1;locked=0;connectable=1;fontColor=#CC0000;fontSize=10;" parent="1" vertex="1">
          <mxGeometry x="-452.36999999999995" y="343.90999999999997" width="30.02" height="15.74" as="geometry" />
        </mxCell>
        <mxCell id="KUyBQeICQTxNZvnN68rY-431" value="$$\texttt{sh[3]}$$" style="text;html=1;align=center;verticalAlign=middle;whiteSpace=wrap;rounded=0;direction=south;fillColor=none;movable=1;resizable=1;rotatable=1;deletable=1;editable=1;locked=0;connectable=1;fontColor=#CC0000;fontSize=10;" parent="1" vertex="1">
          <mxGeometry x="-415.54" y="344.14" width="26.36" height="14.23" as="geometry" />
        </mxCell>
        <mxCell id="KUyBQeICQTxNZvnN68rY-442" value="$$\texttt{sh[0]}$$" style="text;html=1;align=center;verticalAlign=middle;whiteSpace=wrap;rounded=0;direction=south;fillColor=none;movable=1;resizable=1;rotatable=1;deletable=1;editable=1;locked=0;connectable=1;fontColor=#CC0000;fontSize=10;" parent="1" vertex="1">
          <mxGeometry x="-519.6899999999999" y="413.28999999999996" width="30.02" height="15.74" as="geometry" />
        </mxCell>
        <mxCell id="KUyBQeICQTxNZvnN68rY-443" value="$$\texttt{sh[1]}$$" style="text;html=1;align=center;verticalAlign=middle;whiteSpace=wrap;rounded=0;direction=south;fillColor=none;movable=1;resizable=1;rotatable=1;deletable=1;editable=1;locked=0;connectable=1;fontColor=#CC0000;fontSize=10;" parent="1" vertex="1">
          <mxGeometry x="-484.17" y="413.92999999999995" width="26.36" height="14.23" as="geometry" />
        </mxCell>
        <mxCell id="KUyBQeICQTxNZvnN68rY-444" value="$$\texttt{sh[0]}$$" style="text;html=1;align=center;verticalAlign=middle;whiteSpace=wrap;rounded=0;direction=south;fillColor=none;movable=1;resizable=1;rotatable=1;deletable=1;editable=1;locked=0;connectable=1;fontColor=#CC0000;fontSize=10;" parent="1" vertex="1">
          <mxGeometry x="-520.3699999999999" y="482.76" width="30.02" height="15.74" as="geometry" />
        </mxCell>
        <mxCell id="KUyBQeICQTxNZvnN68rY-445" value="$$\texttt{sh[0]}$$" style="text;html=1;align=center;verticalAlign=middle;whiteSpace=wrap;rounded=0;direction=south;fillColor=none;movable=1;resizable=1;rotatable=1;deletable=1;editable=1;locked=0;connectable=1;fontColor=#CC0000;fontSize=10;" parent="1" vertex="1">
          <mxGeometry x="-333.02" y="344.15999999999997" width="30.02" height="15.74" as="geometry" />
        </mxCell>
        <mxCell id="KUyBQeICQTxNZvnN68rY-446" value="$$\texttt{sh[1]}$$" style="text;html=1;align=center;verticalAlign=middle;whiteSpace=wrap;rounded=0;direction=south;fillColor=none;movable=1;resizable=1;rotatable=1;deletable=1;editable=1;locked=0;connectable=1;fontColor=#CC0000;fontSize=10;" parent="1" vertex="1">
          <mxGeometry x="-297.5" y="344.79999999999995" width="26.36" height="14.23" as="geometry" />
        </mxCell>
        <mxCell id="KUyBQeICQTxNZvnN68rY-447" value="$$\texttt{sh[2]}$$" style="text;html=1;align=center;verticalAlign=middle;whiteSpace=wrap;rounded=0;direction=south;fillColor=none;movable=1;resizable=1;rotatable=1;deletable=1;editable=1;locked=0;connectable=1;fontColor=#CC0000;fontSize=10;" parent="1" vertex="1">
          <mxGeometry x="-265.69999999999993" y="343.80999999999995" width="30.02" height="15.74" as="geometry" />
        </mxCell>
        <mxCell id="KUyBQeICQTxNZvnN68rY-448" value="$$\texttt{sh[3]}$$" style="text;html=1;align=center;verticalAlign=middle;whiteSpace=wrap;rounded=0;direction=south;fillColor=none;movable=1;resizable=1;rotatable=1;deletable=1;editable=1;locked=0;connectable=1;fontColor=#CC0000;fontSize=10;" parent="1" vertex="1">
          <mxGeometry x="-228.87000000000003" y="344.03999999999996" width="26.36" height="14.23" as="geometry" />
        </mxCell>
        <mxCell id="KUyBQeICQTxNZvnN68rY-449" value="$$\texttt{sh[0]}$$" style="text;html=1;align=center;verticalAlign=middle;whiteSpace=wrap;rounded=0;direction=south;fillColor=none;movable=1;resizable=1;rotatable=1;deletable=1;editable=1;locked=0;connectable=1;fontColor=#CC0000;fontSize=10;" parent="1" vertex="1">
          <mxGeometry x="-333.02" y="413.18999999999994" width="30.02" height="15.74" as="geometry" />
        </mxCell>
        <mxCell id="KUyBQeICQTxNZvnN68rY-450" value="$$\texttt{sh[1]}$$" style="text;html=1;align=center;verticalAlign=middle;whiteSpace=wrap;rounded=0;direction=south;fillColor=none;movable=1;resizable=1;rotatable=1;deletable=1;editable=1;locked=0;connectable=1;fontColor=#CC0000;fontSize=10;" parent="1" vertex="1">
          <mxGeometry x="-297.5" y="413.8299999999999" width="26.36" height="14.23" as="geometry" />
        </mxCell>
        <mxCell id="KUyBQeICQTxNZvnN68rY-451" value="$$\texttt{sh[0]}$$" style="text;html=1;align=center;verticalAlign=middle;whiteSpace=wrap;rounded=0;direction=south;fillColor=none;movable=1;resizable=1;rotatable=1;deletable=1;editable=1;locked=0;connectable=1;fontColor=#CC0000;fontSize=10;" parent="1" vertex="1">
          <mxGeometry x="-333.0199999999999" y="482.76" width="30.02" height="15.74" as="geometry" />
        </mxCell>
        <mxCell id="KUyBQeICQTxNZvnN68rY-452" value="$$\texttt{tid}_{\texttt{y}}\texttt{=1}$$" style="text;html=1;align=center;verticalAlign=middle;whiteSpace=wrap;rounded=0;fontSize=10;container=0;fontStyle=0;fontColor=#000000;" parent="1" vertex="1">
          <mxGeometry x="-545.57" y="164.10999999999999" width="46.83" height="17.5" as="geometry" />
        </mxCell>
        <mxCell id="KUyBQeICQTxNZvnN68rY-453" value="$$\texttt{tid}_{\texttt{x}}\texttt{=0}$$" style="text;html=1;align=center;verticalAlign=middle;whiteSpace=wrap;rounded=0;fontSize=9;container=0;fontStyle=0;fontColor=#000000;" parent="1" vertex="1">
          <mxGeometry x="-733.9100000000001" y="122.5" width="36.98" height="10.5" as="geometry" />
        </mxCell>
        <mxCell id="KUyBQeICQTxNZvnN68rY-454" value="$$\texttt{tid}_{\texttt{x}}\texttt{=1}$$" style="text;html=1;align=center;verticalAlign=middle;whiteSpace=wrap;rounded=0;fontSize=9;container=0;fontStyle=0;fontColor=#000000;" parent="1" vertex="1">
          <mxGeometry x="-693.9100000000001" y="122.5" width="36.98" height="10.5" as="geometry" />
        </mxCell>
        <mxCell id="KUyBQeICQTxNZvnN68rY-455" value="$$\texttt{tid}_{\texttt{x}}\texttt{=2}$$" style="text;html=1;align=center;verticalAlign=middle;whiteSpace=wrap;rounded=0;fontSize=9;container=0;fontStyle=0;fontColor=#000000;" parent="1" vertex="1">
          <mxGeometry x="-655.4200000000001" y="122.5" width="36.98" height="10.5" as="geometry" />
        </mxCell>
        <mxCell id="KUyBQeICQTxNZvnN68rY-456" value="$$\texttt{tid}_{\texttt{x}}\texttt{=3}$$" style="text;html=1;align=center;verticalAlign=middle;whiteSpace=wrap;rounded=0;fontSize=9;container=0;fontStyle=0;fontColor=#000000;" parent="1" vertex="1">
          <mxGeometry x="-614.9000000000001" y="122.5" width="36.98" height="10.5" as="geometry" />
        </mxCell>
        <mxCell id="KUyBQeICQTxNZvnN68rY-457" value="" style="rounded=0;whiteSpace=wrap;html=1;direction=south;fillColor=#FFFFFF;strokeColor=#000000;strokeWidth=1.2;" parent="1" vertex="1">
          <mxGeometry x="-696.4200000000001" y="135.56" width="40" height="30" as="geometry" />
        </mxCell>
        <mxCell id="KUyBQeICQTxNZvnN68rY-458" value="" style="rounded=0;whiteSpace=wrap;html=1;direction=south;fillColor=#FFFFFF;strokeColor=#000000;strokeWidth=1.2;" parent="1" vertex="1">
          <mxGeometry x="-656.4200000000001" y="135.56" width="40" height="30" as="geometry" />
        </mxCell>
        <mxCell id="KUyBQeICQTxNZvnN68rY-459" value="" style="rounded=0;whiteSpace=wrap;html=1;direction=south;fillColor=#FFFFFF;strokeColor=#000000;strokeWidth=1.2;" parent="1" vertex="1">
          <mxGeometry x="-616.4200000000001" y="135.56" width="40" height="30" as="geometry" />
        </mxCell>
        <mxCell id="4g6r8dvRK6a94_yx4DHO-61" value="$$H_{5}$$" style="text;html=1;align=center;verticalAlign=middle;whiteSpace=wrap;rounded=0;direction=south;fillColor=none;movable=1;resizable=1;rotatable=1;deletable=1;editable=1;locked=0;connectable=1;fontColor=#CC0000;" parent="1" vertex="1">
          <mxGeometry x="-684.8" y="141.81" width="16.75" height="17.5" as="geometry" />
        </mxCell>
        <mxCell id="4g6r8dvRK6a94_yx4DHO-63" value="$$H_{10}$$" style="text;html=1;align=center;verticalAlign=middle;whiteSpace=wrap;rounded=0;direction=south;fillColor=none;movable=1;resizable=1;rotatable=1;deletable=1;editable=1;locked=0;connectable=1;fontColor=#CC0000;" parent="1" vertex="1">
          <mxGeometry x="-642.9399999999999" y="142.50000000000003" width="16.75" height="17" as="geometry" />
        </mxCell>
        <mxCell id="4g6r8dvRK6a94_yx4DHO-77" value="$$P_{100}$$" style="text;html=1;align=center;verticalAlign=middle;whiteSpace=wrap;rounded=0;direction=south;fillColor=none;movable=1;resizable=1;rotatable=1;deletable=1;editable=1;locked=0;connectable=1;fontColor=#CC0000;" parent="1" vertex="1">
          <mxGeometry x="-606.04" y="142.25" width="19.25" height="17.5" as="geometry" />
        </mxCell>
        <mxCell id="KUyBQeICQTxNZvnN68rY-460" value="$$\texttt{tid}_{\texttt{y}}\texttt{=0}$$" style="text;html=1;align=center;verticalAlign=middle;whiteSpace=wrap;rounded=0;fontSize=10;container=0;fontStyle=0;fontColor=#000000;" parent="1" vertex="1">
          <mxGeometry x="-507.03000000000003" y="521" width="46.83" height="17.5" as="geometry" />
        </mxCell>
        <mxCell id="KUyBQeICQTxNZvnN68rY-461" value="$$\texttt{tid}_{\texttt{y}}\texttt{=1}$$" style="text;html=1;align=center;verticalAlign=middle;whiteSpace=wrap;rounded=0;fontSize=10;container=0;fontStyle=0;fontColor=#000000;" parent="1" vertex="1">
          <mxGeometry x="-317.97" y="520" width="46.83" height="17.5" as="geometry" />
        </mxCell>
        <mxCell id="KUyBQeICQTxNZvnN68rY-462" value="$$\texttt{t}_{\texttt{x}}\texttt{=0}$$" style="text;html=1;align=center;verticalAlign=middle;whiteSpace=wrap;rounded=0;fontSize=10;container=0;fontStyle=0;fontColor=#000000;" parent="1" vertex="1">
          <mxGeometry x="-517.4399999999999" y="318.49" width="22.16" height="9.01" as="geometry" />
        </mxCell>
        <mxCell id="KUyBQeICQTxNZvnN68rY-463" value="$$\texttt{t}_{\texttt{x}}\texttt{=1}$$" style="text;html=1;align=center;verticalAlign=middle;whiteSpace=wrap;rounded=0;fontSize=10;container=0;fontStyle=0;fontColor=#000000;" parent="1" vertex="1">
          <mxGeometry x="-482.43999999999994" y="318.49" width="22.16" height="9.01" as="geometry" />
        </mxCell>
        <mxCell id="KUyBQeICQTxNZvnN68rY-464" value="$$\texttt{t}_{\texttt{x}}\texttt{=2}$$" style="text;html=1;align=center;verticalAlign=middle;whiteSpace=wrap;rounded=0;fontSize=10;container=0;fontStyle=0;fontColor=#000000;" parent="1" vertex="1">
          <mxGeometry x="-447.98999999999995" y="318.49" width="22.16" height="9.01" as="geometry" />
        </mxCell>
        <mxCell id="KUyBQeICQTxNZvnN68rY-465" value="$$\texttt{t}_{\texttt{x}}\texttt{=3}$$" style="text;html=1;align=center;verticalAlign=middle;whiteSpace=wrap;rounded=0;fontSize=10;container=0;fontStyle=0;fontColor=#000000;" parent="1" vertex="1">
          <mxGeometry x="-415.53999999999996" y="318.49" width="22.16" height="9.01" as="geometry" />
        </mxCell>
        <mxCell id="KUyBQeICQTxNZvnN68rY-469" value="$$\texttt{t}_{\texttt{x}}\texttt{=0}$$" style="text;html=1;align=center;verticalAlign=middle;whiteSpace=wrap;rounded=0;fontSize=10;container=0;fontStyle=0;fontColor=#000000;" parent="1" vertex="1">
          <mxGeometry x="-329.3599999999999" y="318.49" width="22.16" height="9.01" as="geometry" />
        </mxCell>
        <mxCell id="KUyBQeICQTxNZvnN68rY-470" value="$$\texttt{t}_{\texttt{x}}\texttt{=1}$$" style="text;html=1;align=center;verticalAlign=middle;whiteSpace=wrap;rounded=0;fontSize=10;container=0;fontStyle=0;fontColor=#000000;" parent="1" vertex="1">
          <mxGeometry x="-294.3599999999999" y="318.49" width="22.16" height="9.01" as="geometry" />
        </mxCell>
        <mxCell id="KUyBQeICQTxNZvnN68rY-471" value="$$\texttt{t}_{\texttt{x}}\texttt{=2}$$" style="text;html=1;align=center;verticalAlign=middle;whiteSpace=wrap;rounded=0;fontSize=10;container=0;fontStyle=0;fontColor=#000000;" parent="1" vertex="1">
          <mxGeometry x="-259.90999999999997" y="318.49" width="22.16" height="9.01" as="geometry" />
        </mxCell>
        <mxCell id="KUyBQeICQTxNZvnN68rY-472" value="$$\texttt{t}_{\texttt{x}}\texttt{=3}$$" style="text;html=1;align=center;verticalAlign=middle;whiteSpace=wrap;rounded=0;fontSize=10;container=0;fontStyle=0;fontColor=#000000;" parent="1" vertex="1">
          <mxGeometry x="-227.45999999999995" y="318.49" width="22.16" height="9.01" as="geometry" />
        </mxCell>
        <mxCell id="KUyBQeICQTxNZvnN68rY-474" value="\(\dots\)" style="text;html=1;align=center;verticalAlign=middle;whiteSpace=wrap;rounded=0;fontSize=12;rotation=-180;" parent="1" vertex="1">
          <mxGeometry x="-285.35" y="144.61" width="19.72" height="18.5" as="geometry" />
        </mxCell>
        <mxCell id="H_nygDd1cwoYoH5lbsT0-1" value="X[0]" style="text;html=1;align=center;verticalAlign=middle;whiteSpace=wrap;rounded=0;fontColor=#4D9900;direction=south;movable=1;resizable=1;rotatable=1;deletable=1;editable=1;locked=0;connectable=1;fontSize=11;fontStyle=0" vertex="1" parent="1">
          <mxGeometry x="-356.36000000000007" y="124.41" width="26.03" height="15.52" as="geometry" />
        </mxCell>
        <mxCell id="H_nygDd1cwoYoH5lbsT0-2" value="X[1]" style="text;html=1;align=center;verticalAlign=middle;whiteSpace=wrap;rounded=0;fontColor=#4D9900;direction=south;movable=1;resizable=1;rotatable=1;deletable=1;editable=1;locked=0;connectable=1;fontSize=11;fontStyle=0" vertex="1" parent="1">
          <mxGeometry x="-323.52" y="123.25" width="27.88" height="17.05" as="geometry" />
        </mxCell>
        <mxCell id="H_nygDd1cwoYoH5lbsT0-3" value="X[127]" style="text;html=1;align=center;verticalAlign=middle;whiteSpace=wrap;rounded=0;fontColor=#4D9900;direction=south;movable=1;resizable=1;rotatable=1;deletable=1;editable=1;locked=0;connectable=1;fontSize=11;fontStyle=0" vertex="1" parent="1">
          <mxGeometry x="-255.2199999999999" y="123.64000000000001" width="24.02" height="17.05" as="geometry" />
        </mxCell>
        <mxCell id="H_nygDd1cwoYoH5lbsT0-4" value="X[128]" style="text;html=1;align=center;verticalAlign=middle;whiteSpace=wrap;rounded=0;fontColor=#4D9900;direction=south;movable=1;resizable=1;rotatable=1;deletable=1;editable=1;locked=0;connectable=1;fontSize=11;fontStyle=0" vertex="1" parent="1">
          <mxGeometry x="-356.50000000000006" y="165.50000000000003" width="26.03" height="15.52" as="geometry" />
        </mxCell>
        <mxCell id="H_nygDd1cwoYoH5lbsT0-5" value="X[129]" style="text;html=1;align=center;verticalAlign=middle;whiteSpace=wrap;rounded=0;fontColor=#4D9900;direction=south;movable=1;resizable=1;rotatable=1;deletable=1;editable=1;locked=0;connectable=1;fontSize=11;fontStyle=0" vertex="1" parent="1">
          <mxGeometry x="-321.27" y="164.34" width="27.88" height="17.05" as="geometry" />
        </mxCell>
        <mxCell id="H_nygDd1cwoYoH5lbsT0-6" value="X[255]" style="text;html=1;align=center;verticalAlign=middle;whiteSpace=wrap;rounded=0;fontColor=#4D9900;direction=south;movable=1;resizable=1;rotatable=1;deletable=1;editable=1;locked=0;connectable=1;fontSize=11;fontStyle=0" vertex="1" parent="1">
          <mxGeometry x="-254.9799999999999" y="163.25" width="24.02" height="17.05" as="geometry" />
        </mxCell>
      </root>
    </mxGraphModel>
  </diagram>
</mxfile>
